<?xml version="1.0" encoding="UTF-8" standalone="no"?>
<svg
   xmlns:dc="http://purl.org/dc/elements/1.1/"
   xmlns:cc="http://creativecommons.org/ns#"
   xmlns:rdf="http://www.w3.org/1999/02/22-rdf-syntax-ns#"
   xmlns:svg="http://www.w3.org/2000/svg"
   xmlns="http://www.w3.org/2000/svg"
   xmlns:xlink="http://www.w3.org/1999/xlink"
   xmlns:sodipodi="http://sodipodi.sourceforge.net/DTD/sodipodi-0.dtd"
   xmlns:inkscape="http://www.inkscape.org/namespaces/inkscape"
   version="1.1"
   width="1000"
   height="700"
   id="svg2"
   inkscape:version="0.48.4 r9939"
   sodipodi:docname="SDR_et_WF.svg">
  <metadata
     id="metadata190">
    <rdf:RDF>
      <cc:Work
         rdf:about="">
        <dc:format>image/svg+xml</dc:format>
        <dc:type
           rdf:resource="http://purl.org/dc/dcmitype/StillImage" />
        <dc:title></dc:title>
      </cc:Work>
    </rdf:RDF>
  </metadata>
  <sodipodi:namedview
     pagecolor="#ffffff"
     bordercolor="#666666"
     borderopacity="1"
     objecttolerance="10"
     gridtolerance="10"
     guidetolerance="10"
     inkscape:pageopacity="0"
     inkscape:pageshadow="2"
     inkscape:window-width="1600"
     inkscape:window-height="823"
     id="namedview188"
     showgrid="false"
     inkscape:zoom="0.953584"
     inkscape:cx="500"
     inkscape:cy="373.86785"
     inkscape:window-x="0"
     inkscape:window-y="24"
     inkscape:window-maximized="1"
     inkscape:current-layer="svg2" />
  <defs
     id="defs4">
    <path
       id="arrow"
       d="M -10 10 h 20 L 0 -10 z"
       style="fill:#000; stroke:#fff; stroke-width:2px;" />
    <path
       id="bracket"
       d="M -100 -15   q 0 15 15 15 h 70 q 15 0 15 15   q 0 -15 15 -15 h 70 q 15 0 15 -15"
       style="stroke:#445;stroke-width:2px;fill:none;" />
  </defs>
  <g
     id="g3234"
     inkscape:export-filename="/home/aolofsson/Dropbox (Adapteva)/Adapteva_andreas/publishing/presentations/conferences/2015_hotchip/images/sdr.png"
     inkscape:export-xdpi="90"
     inkscape:export-ydpi="90">
    <path
       inkscape:connector-curvature="0"
       id="path11"
       d="m 655,278.72582 v 30 H 35 v -180 l 20,-15 m 415,195 v -30 m -135,30 v -120 m -135,120 v -50"
       style="fill:none;stroke:#000000;stroke-width:2px" />
    <path
       inkscape:connector-curvature="0"
       id="path13"
       d="m 80.5,139.22582 v 60 q 0,10 10,10 h 60 m 90,-30 h 70 m -70,60 h 70"
       style="fill:none;stroke:#000000;stroke-width:5px;stroke-dasharray:3, 3" />
    <path
       inkscape:connector-curvature="0"
       id="path15"
       d="m 360.5,179.22582 h 70 m -70,60 h 70 m 70,-75 h 470 m -470,90 h 70 m 330,0 h 70"
       style="fill:none;stroke:#000000;stroke-width:5px" />
    <use
       height="700"
       width="1000"
       y="0"
       x="0"
       id="use17"
       transform="matrix(0.6,0,0,0.6,200,264.72582)"
       xlink:href="#arrow" />
    <use
       height="700"
       width="1000"
       y="0"
       x="0"
       id="use19"
       transform="matrix(0.6,0,0,0.6,335,264.72582)"
       xlink:href="#arrow" />
    <use
       height="700"
       width="1000"
       y="0"
       x="0"
       id="use21"
       transform="matrix(0.6,0,0,0.6,470,284.72582)"
       xlink:href="#arrow" />
    <use
       height="700"
       width="1000"
       y="0"
       x="0"
       id="use23"
       transform="matrix(0.3,0.51961524,-0.51961524,0.3,55,115.72582)"
       xlink:href="#arrow" />
    <g
       transform="translate(0,58.725818)"
       style="fill:#eeeeee;stroke:#000000;stroke-width:1px"
       id="boxes">
      <rect
         id="flex"
         height="100"
         width="100"
         y="100.5"
         x="150.5" />
      <rect
         id="adc"
         height="40"
         width="70"
         y="100.5"
         x="300.5" />
      <rect
         id="dac"
         height="40"
         width="70"
         y="160.5"
         x="300.5" />
      <rect
         id="channelization"
         height="140"
         width="110"
         y="80.5"
         x="415.5" />
      <rect
         id="processing"
         height="40"
         width="350"
         y="80.5"
         x="570.5" />
      <rect
         id="hardware"
         height="96"
         width="173"
         y="124.5"
         x="570.5" />
      <rect
         id="software"
         height="96"
         width="173"
         y="124.5"
         x="747.5" />
    </g>
    <path
       inkscape:connector-curvature="0"
       style="fill:none;stroke:#000000;stroke-width:1px"
       d="m 80.5,89.225818 h 25 l -25,50.000002 -25,-50.000002 h 25 v 50.000002"
       id="sa" />
    <use
       height="700"
       width="1000"
       y="0"
       x="0"
       id="use34"
       transform="matrix(0.8,0,0,1,170,359.22582)"
       xlink:href="#bracket" />
    <use
       height="700"
       width="1000"
       y="0"
       x="0"
       id="use36"
       transform="matrix(0.5,0,0,1,330,359.22582)"
       xlink:href="#bracket" />
    <use
       height="700"
       width="1000"
       y="0"
       x="0"
       id="use38"
       transform="matrix(0.8,0,0,1,470,359.22582)"
       xlink:href="#bracket" />
    <use
       height="700"
       width="1000"
       y="0"
       x="0"
       id="use40"
       transform="matrix(1.8,0,0,1,745,359.22582)"
       xlink:href="#bracket" />
    <g
       transform="translate(0,58.725818)"
       style="font-size:35px;text-anchor:middle;font-family:sans-serif"
       id="g60">
      <text
         x="500"
         y="40"
         id="text62">Software Defined Radio</text>
    </g>
    <text
       id="text76"
       y="408.72583"
       x="170"
       style="font-size:22px;text-anchor:middle;font-family:sans-serif">RF/IF</text>
    <text
       id="text78"
       y="398.72583"
       x="330"
       style="font-size:22px;text-anchor:middle;font-family:sans-serif">A/D<tspan
   id="tspan80"
   x="330"
   dy="26">D/A</tspan>
</text>
    <text
       id="text82"
       y="398.72583"
       x="470"
       style="font-size:22px;text-anchor:middle;font-family:sans-serif">Digital<tspan
   id="tspan84"
   x="470"
   dy="26">Front End</tspan>
</text>
    <text
       id="text86"
       y="398.72583"
       x="750"
       style="font-size:22px;text-anchor:middle;font-family:sans-serif">Base Band<tspan
   id="tspan88"
   x="750"
   dy="26">Processing</tspan>
</text>
    <g
       transform="translate(0,58.725818)"
       style="font-size:13px;text-anchor:middle;font-family:sans-serif"
       id="g116">
      <text
         x="140"
         y="30"
         id="text118">Smart<tspan
   x="140"
   dy="17"
   id="tspan120">Antenna</tspan>
</text>
      <text
         x="200"
         y="130"
         id="text122">Flexible<tspan
   x="200"
   dy="17"
   id="tspan124">RF</tspan>
<tspan
   x="200"
   dy="17"
   id="tspan126">Hardware</tspan>
</text>
      <text
         x="335"
         y="125"
         id="text128">ADC</text>
      <text
         x="335"
         y="185"
         id="text130">DAC</text>
      <text
         x="265"
         y="155"
         id="text132">IF</text>
      <text
         x="470"
         y="125"
         id="text134">Channelization<tspan
   x="470"
   dy="17"
   id="tspan136">and</tspan>
<tspan
   x="470"
   dy="17"
   id="tspan138">Sample Rate</tspan>
<tspan
   x="470"
   dy="17"
   id="tspan140">Conversion</tspan>
</text>
      <text
         x="748"
         y="110"
         id="text142">Processing</text>
      <text
         style="text-anchor:start"
         x="620"
         y="150"
         id="text144">Hardware<tspan
   x="620"
   dy="17"
   id="tspan146">• FPGAs</tspan>
<tspan
   x="620"
   dy="17"
   id="tspan148">• DSPs</tspan>
<tspan
   x="620"
   dy="17"
   id="tspan150">• ASICs</tspan>
</text>
      <text
         style="text-anchor:start"
         x="760"
         y="143"
         id="text152">Software<tspan
   x="760"
   dy="17"
   id="tspan154">• Algorithms</tspan>
<tspan
   x="760"
   dy="17"
   id="tspan156">• Middleware</tspan>
<tspan
   x="760"
   dy="17"
   id="tspan158">• CORBA</tspan>
<tspan
   x="760"
   dy="17"
   id="tspan160">• Virtual Radio Machine</tspan>
</text>
      <text
         x="960"
         y="90"
         id="text162">Output</text>
      <text
         x="960"
         y="180"
         id="text164">Input</text>
      <text
         x="385"
         y="280"
         id="text166">Control</text>
    </g>
    <use
       height="700"
       width="1000"
       y="0"
       x="0"
       id="use168"
       transform="matrix(0,1,-1,0,145.5,209.22582)"
       xlink:href="#arrow" />
    <use
       height="700"
       width="1000"
       y="0"
       x="0"
       id="use170"
       transform="matrix(0,-1,1,0,100.5,209.22582)"
       xlink:href="#arrow" />
    <use
       height="700"
       width="1000"
       y="0"
       x="0"
       id="use172"
       transform="matrix(0,1,-1,0,295.5,179.22582)"
       xlink:href="#arrow" />
    <use
       height="700"
       width="1000"
       y="0"
       x="0"
       id="use174"
       transform="matrix(0,-1,1,0,255.5,239.22582)"
       xlink:href="#arrow" />
    <use
       height="700"
       width="1000"
       y="0"
       x="0"
       id="use176"
       transform="matrix(0,1,-1,0,410.5,179.22582)"
       xlink:href="#arrow" />
    <use
       height="700"
       width="1000"
       y="0"
       x="0"
       id="use178"
       transform="matrix(0,-1,1,0,375.5,239.22582)"
       xlink:href="#arrow" />
    <use
       height="700"
       width="1000"
       y="0"
       x="0"
       id="use180"
       transform="matrix(0,1,-1,0,565.5,164.22582)"
       xlink:href="#arrow" />
    <use
       height="700"
       width="1000"
       y="0"
       x="0"
       id="use182"
       transform="matrix(0,-1,1,0,530.5,254.22582)"
       xlink:href="#arrow" />
    <use
       height="700"
       width="1000"
       y="0"
       x="0"
       id="use184"
       transform="matrix(0,1,-1,0,965.5,164.22582)"
       xlink:href="#arrow" />
    <use
       height="700"
       width="1000"
       y="0"
       x="0"
       id="use186"
       transform="matrix(0,-1,1,0,925.5,254.22582)"
       xlink:href="#arrow" />
  </g>
</svg>
