<?xml version="1.0" encoding="UTF-8" standalone="no" ?>
<svg
xmlns="http://www.w3.org/2000/svg"
xmlns:xlink="http://www.w3.org/1999/xlink"
version="1.1"
width="1000"
height="700">
<defs>
	<path id="arrow" d="M -10 10 h 20 L 0 -10 z"
		style="fill:#000; stroke:#fff; stroke-width:2px;" />
	<path id="bracket"
		d="M -100 -15
		q 0 15 15 15 h 70 q 15 0 15 15
		q 0 -15 15 -15 h 70 q 15 0 15 -15"
		style="stroke:#445;stroke-width:2px;fill:none;" />
</defs>

<rect id="bg" x="0" y="0" width="1000" height="700" fill="#fff" />

<path style="stroke:#000;stroke-width:2px;fill:none;"
	d="M 920 545 H 50 v -100
		m -25 -50 l 25 50 l 25 -50" />

<path style="stroke:#000;stroke-width:2px;fill:none;"
	d="M 655 220 v 30 h -620 v -180 l 20 -15
		M 470 250 v -30
		M 335 250 v -120
		M 200 250 v -50" />

<path style="stroke:#000;stroke-width:5px;fill:none;stroke-dasharray:3 3;"
	d="M 80.5 80.5 v 60 q 0 10 10 10 h 60
		M 240.5 120.5 h 70
		M 240.5 180.5 h 70" />
<path style="stroke:#000;stroke-width:5px;fill:none;"
	d="M 360.5 120.5 h 70
		M 360.5 180.5 h 70
		M 500.5 105.5 h 470
		M 500.5 195.5 h 70
		M 900.5 195.5 h 70" />
	
<use xlink:href="#arrow" transform="translate(200 206) scale(0.6)" />
<use xlink:href="#arrow" transform="translate(335 206) scale(0.6)" />
<use xlink:href="#arrow" transform="translate(470 226) scale(0.6)" />
<use xlink:href="#arrow" transform="translate(55 57) rotate(60) scale(0.6)" />

<g id="boxes" style="stroke:#000;stroke-width:1px;fill:#eee;">
	<rect x="150.5" y="100.5" width="100" height="100" id="flex" />
	<rect x="300.5" y="100.5" width="70" height="40" id="adc" />
	<rect x="300.5" y="160.5" width="70" height="40" id="dac" />
	<rect x="415.5" y="80.5" width="110" height="140" id="channelization" />
	<rect x="570.5" y="80.5" width="350" height="40" id="processing" />
	<rect x="570.5" y="124.5" width="173" height="96" id="hardware" />
	<rect x="747.5" y="124.5" width="173" height="96" id="software" />
</g>
<path id="sa" d="M 0 0 h 25 L 0 50 L -25 0 h 25 v 50"
	style="stroke:#000;stroke-width:1px;fill:none;"
	transform="translate(80.5 30.5)" />

<use xlink:href="#bracket" transform="translate(170 300.5) scale(0.8 1)" />
<use xlink:href="#bracket" transform="translate(330 300.5) scale(0.5 1)" />
<use xlink:href="#bracket" transform="translate(470 300.5) scale(0.8 1)" />
<use xlink:href="#bracket" transform="translate(745 300.5) scale(1.8 1)" />


<g id="boxes2" style="stroke:#000;stroke-width:1px;fill:#eee;">
	<rect x="120.5" y="500.5" width="120" height="90" />
	<rect x="280.5" y="500.5" width="120" height="90" />
	<rect x="440.5" y="500.5" width="120" height="90" />
	<rect x="600.5" y="500.5" width="120" height="90" />
	<rect x="760.5" y="500.5" width="120" height="90" /> 
</g>

<use xlink:href="#bracket" transform="translate(500 460.5) scale(3.8 -1)" />
<use xlink:href="#bracket" transform="translate(610 620.5) scale(2.7 1)" />
<use xlink:href="#bracket" transform="translate(225 620.5) scale(1.05 1)" />

<g id="text" style="font-family:sans-serif;text-anchor:middle;">
	<g style="font-size:35px;">
		<text x="500" y="40">Software Defined Radio</text>
	</g>
	<g style="font-size:22px;">
		<text x="500" y="440">Waveform</text>
		<text x="225" y="660">HARDWARE</text>
		<text x="610" y="660">SOFTWARE</text>
		<text x="60" y="390">ANTENNA</text>
		<text x="180" y="490">RF</text>
		
		<text x="170" y="350">RF/IF</text>
		<text x="330" y="340">A/D<tspan dy="26" x="330">D/A</tspan></text>
		<text x="470" y="340">Digital<tspan dy="26" x="470">Front End</tspan></text>
		<text x="750" y="340">Base Band<tspan dy="26" x="750">Processing</tspan></text>
		<text x="952" y="552">User</text>
	</g>
	<g style="font-size:20px;">
		<text x="180" y="540">AMPLIFIER<tspan x="180" dy="30">FILTER</tspan></text>
		<text x="340" y="540">A/D<tspan x="340" dy="30">D/A</tspan></text>
		<text x="500" y="527">Modem<tspan x="500" dy="26">Error</tspan><tspan x="500" dy="26">Correction</tspan></text>
		<text x="660" y="550">Encryption</text>
		<text x="820" y="527">Network<tspan x="820" dy="26">Routing</tspan><tspan x="820" dy="26">GUI</tspan></text>
	</g>	
	<g style="font-size:13px;">
		<text x="140" y="30">Smart<tspan x="140" dy="17">Antenna</tspan></text>
		<text x="200" y="130">Flexible<tspan x="200" dy="17">RF</tspan><tspan x="200" dy="17">Hardware</tspan></text>
		<text x="335" y="125">ADC</text>
		<text x="335" y="185">DAC</text>
		<text x="265" y="155">IF</text>
		<text x="470" y="125">Channelization<tspan x="470" dy="17">and</tspan><tspan x="470" dy="17">Sample Rate</tspan><tspan x="470" dy="17">Conversion</tspan></text>
		<text x="748" y="110">Processing</text>
		<text style="text-anchor:start;" x="620" y="150">Hardware<tspan x="620" dy="17">• FPGAs</tspan><tspan x="620" dy="17">• DSPs</tspan><tspan x="620" dy="17">• ASICs</tspan></text>
		<text style="text-anchor:start;" x="760" y="143">Software<tspan x="760" dy="17">• Algorithms</tspan><tspan x="760" dy="17">• Middleware</tspan><tspan x="760" dy="17">• CORBA</tspan><tspan x="760" dy="17">• Virtual Radio Machine</tspan></text>
		<text x="960" y="90">Output</text>
		<text x="960" y="180">Input</text>
		<text x="385" y="280">Control</text>
	</g>
</g>

<use xlink:href="#arrow" transform="rotate(90 145.5 150.5) translate(145.5 150.5)" />
<use xlink:href="#arrow" transform="rotate(270 100.5 150.5) translate(100.5 150.5)" />

<use xlink:href="#arrow" transform="rotate(90 295.5 120.5) translate(295.5 120.5)" />
<use xlink:href="#arrow" transform="rotate(270 255.5 180.5) translate(255.5 180.5)" />

<use xlink:href="#arrow" transform="rotate(90 410.5 120.5) translate(410.5 120.5)" />
<use xlink:href="#arrow" transform="rotate(270 375.5 180.5) translate(375.5 180.5)" />

<use xlink:href="#arrow" transform="rotate(90 565.5 105.5) translate(565.5 105.5)" />
<use xlink:href="#arrow" transform="rotate(270 530.5 195.5) translate(530.5 195.5)" />

<use xlink:href="#arrow" transform="rotate(90 965.5 105.5) translate(965.5 105.5)" />
<use xlink:href="#arrow" transform="rotate(270 925.5 195.5) translate(925.5 195.5)" />

</svg>
